<?xml version="1.0" encoding="UTF-8"?><svg xmlns="http://www.w3.org/2000/svg" width="1800" height="1200"><path fill="#c4272f" d="M0 0h1800v1200H0z"/><path fill="#015197" d="M600 0h600v1200H600z"/><g fill="#f9cf02" transform="translate(-100)"><circle cx="400" cy="410" r="110"/><circle cx="400" cy="360" r="120" fill="#c4272f"/><circle cx="400" cy="380" r="80"/><path d="M350 230c0 27.6 22.4 50 50 50s50-22.4 50-50c0-20-12.5-22.5-12.5-30s7.5-17.5-7.5-30c7.5 12.5-5 15-5 27.5s5 12.5 5 22.5c0 5.52-4.48 10-10 10s-10-4.48-10-10c0-10 10-20 10-35s-2.5-20-10-32.5-20-22.5-10-32.5c-15 5-7.5 25-7.5 37.5s-10 20-10 35S390 210 390 220c0 5.52-4.48 10-10 10s-10-4.48-10-10c0-10 5-10 5-22.5s-12.5-15-5-27.5c-15 12.5-7.5 22.5-7.5 30S350 210 350 230z"/><path d="M180 540h100v480H180z"/><path d="M520 540h100v480H520z"/><path d="M300 620h200v40H300z"/><path d="M300 900h200v40H300z"/><path d="M300 540l100 60 100-60z"/><path d="M300 960l100 60 100-60z"/><g stroke="#c4272f" stroke-width="12"><circle cx="400" cy="780" r="106"/><path fill="none" d="M400 674a53 53 0 0 1 0 106 53 53 0 0 0 0 106"/></g><circle cx="400" cy="727" r="20" fill="#c4272f"/><circle cx="400" cy="833" r="20" fill="#c4272f"/></g></svg>